<?xml version="1.0" standalone="no"?>
<!DOCTYPE svg PUBLIC "-//W3C//DTD SVG 20010904//EN"
 "http://www.w3.org/TR/2001/REC-SVG-20010904/DTD/svg10.dtd">
<svg version="1.0" xmlns="http://www.w3.org/2000/svg"
 width="512.000000pt" height="512.000000pt" viewBox="0 0 512.000000 512.000000"
 preserveAspectRatio="xMidYMid meet">
<metadata>
Created by potrace 1.14, written by Peter Selinger 2001-2017
</metadata>
<g transform="translate(0.000000,512.000000) scale(0.100000,-0.100000)"
fill="#000000" stroke="none">
<path d="M2327 4850 c-98 -25 -190 -102 -235 -198 -27 -57 -27 -59 -30 -324
l-3 -268 -590 0 -589 0 -424 -212 c-438 -219 -456 -230 -456 -288 0 -58 18
-69 456 -288 l424 -212 363 0 363 0 29 -62 c43 -89 84 -138 320 -378 285 -290
295 -308 302 -581 l5 -177 -72 -4 c-67 -3 -75 -6 -101 -36 l-29 -32 0 -730 0
-730 29 -32 29 -33 1036 -3 1035 -2 33 29 33 29 0 742 0 742 -33 29 c-29 26
-40 29 -98 29 l-66 0 5 208 c5 236 11 266 95 473 65 160 91 265 99 406 l6 112
316 3 c359 3 368 5 451 88 82 82 85 97 85 410 0 313 -3 328 -85 410 -83 83
-92 85 -452 88 l-316 3 -4 167 c-3 156 -5 171 -30 224 -83 179 -288 253 -473
172 -6 -2 -20 15 -32 38 -35 71 -89 125 -161 160 -59 29 -76 33 -147 33 -92 0
-135 -13 -205 -61 l-50 -34 -50 34 c-69 47 -112 61 -200 61 -88 0 -131 -14
-201 -61 l-50 -35 -35 26 c-79 60 -205 88 -297 65z m149 -211 c31 -15 48 -32
63 -63 19 -39 21 -60 21 -279 l0 -237 -150 0 -150 0 0 237 c0 218 2 240 21
279 14 30 32 48 62 63 53 26 80 26 133 0z m500 0 c31 -15 48 -32 63 -63 19
-39 21 -60 21 -279 l0 -237 -150 0 -150 0 0 237 c0 218 2 240 21 279 14 30 32
48 62 63 53 26 80 26 133 0z m500 0 c31 -15 48 -32 63 -63 20 -40 21 -59 21
-416 0 -357 -1 -376 -21 -416 -21 -45 -81 -84 -129 -84 -48 0 -108 39 -129 84
-20 40 -21 59 -21 416 0 356 1 376 21 416 14 30 32 48 62 63 53 26 80 26 133
0z m500 -200 c31 -15 48 -32 63 -63 20 -40 21 -60 21 -316 0 -256 -1 -276 -21
-316 -21 -45 -81 -84 -129 -84 -48 0 -108 39 -129 84 -20 40 -21 60 -21 316 0
256 1 276 21 316 14 30 32 48 62 63 53 26 80 26 133 0z m-936 -591 c0 -33 -55
-124 -102 -170 -99 -96 -178 -118 -430 -118 -184 0 -214 -7 -236 -55 -16 -34
-15 -60 3 -94 15 -30 34 -40 129 -66 197 -55 354 -207 421 -407 24 -72 28
-103 32 -238 5 -172 13 -204 54 -225 35 -19 63 -19 98 -1 43 23 51 54 51 205
0 141 -17 268 -45 335 -8 20 -15 38 -15 41 0 3 239 5 532 5 l531 0 -6 -102
c-8 -127 -22 -179 -96 -371 -91 -236 -101 -291 -101 -544 l0 -183 -699 0 -699
0 -4 193 c-4 172 -7 200 -30 270 -48 144 -91 202 -338 452 -125 127 -236 244
-247 260 -98 145 -109 381 -25 548 67 134 211 243 352 266 30 5 238 9 463 10
320 1 407 -2 407 -11z m1848 -21 l27 -27 0 -240 0 -240 -27 -27 c-24 -23 -38
-28 -98 -31 l-70 -4 0 302 0 302 70 -4 c60 -3 74 -8 98 -31z m-3989 -33 c81
-137 81 -331 0 -468 -11 -20 -23 -36 -25 -36 -9 0 -534 265 -534 270 0 5 519
268 532 269 3 1 16 -15 27 -35z m3161 -2734 l0 -600 -900 0 -900 0 0 600 0
600 900 0 900 0 0 -600z"/>
<path d="M2491 1429 c-43 -43 -43 -95 0 -138 23 -24 39 -31 69 -31 54 0 100
46 100 100 0 54 -46 100 -100 100 -30 0 -46 -7 -69 -31z"/>
<path d="M2891 1429 c-24 -23 -31 -39 -31 -69 0 -30 7 -46 31 -69 l31 -31 438
0 438 0 31 31 c24 23 31 39 31 69 0 30 -7 46 -31 69 l-31 31 -438 0 -438 0
-31 -31z"/>
</g>
</svg>
